<?xml version="1.0" encoding="UTF-8" standalone="no"?>
<!-- Created with Inkscape (http://www.inkscape.org/) -->

<svg
   xmlns:dc="http://purl.org/dc/elements/1.1/"
   xmlns:cc="http://creativecommons.org/ns#"
   xmlns:rdf="http://www.w3.org/1999/02/22-rdf-syntax-ns#"
   xmlns:svg="http://www.w3.org/2000/svg"
   xmlns="http://www.w3.org/2000/svg"
   xmlns:xlink="http://www.w3.org/1999/xlink"
   xmlns:sodipodi="http://sodipodi.sourceforge.net/DTD/sodipodi-0.dtd"
   xmlns:inkscape="http://www.inkscape.org/namespaces/inkscape"
   width="210mm"
   height="297mm"
   viewBox="0 0 210 297"
   version="1.1"
   id="svg8"
   inkscape:version="0.92.2 (unknown)"
   sodipodi:docname="silver.svg">
  <defs
     id="defs2">
    <linearGradient
       inkscape:collect="always"
       id="linearGradient4850-8">
      <stop
         style="stop-color:#ffffff;stop-opacity:1"
         offset="0"
         id="stop4846" />
      <stop
         id="stop4859"
         offset="0.35196117"
         style="stop-color:#ababab;stop-opacity:1" />
      <stop
         style="stop-color:#ffffff;stop-opacity:0.9815951"
         offset="0.55457461"
         id="stop4861" />
      <stop
         id="stop4863"
         offset="0.74520934"
         style="stop-color:#000000;stop-opacity:0.9631902" />
      <stop
         style="stop-color:#050505;stop-opacity:0.20784314"
         offset="1"
         id="stop4867" />
      <stop
         style="stop-color:#ffffff;stop-opacity:1"
         offset="1"
         id="stop4848" />
    </linearGradient>
    <linearGradient
       inkscape:collect="always"
       xlink:href="#linearGradient4850-8"
       id="linearGradient4871"
       gradientUnits="userSpaceOnUse"
       x1="442.57611"
       y1="410.20898"
       x2="442.57611"
       y2="571.20898" />
  </defs>
  <sodipodi:namedview
     id="base"
     pagecolor="#ffffff"
     bordercolor="#666666"
     borderopacity="1.0"
     inkscape:pageopacity="0.0"
     inkscape:pageshadow="2"
     inkscape:zoom="1.3672573"
     inkscape:cx="452.78527"
     inkscape:cy="646.63151"
     inkscape:document-units="mm"
     inkscape:current-layer="layer1"
     showgrid="false"
     showborder="false"
     inkscape:window-width="1920"
     inkscape:window-height="1176"
     inkscape:window-x="0"
     inkscape:window-y="24"
     inkscape:window-maximized="1" />
  <metadata
     id="metadata5">
    <rdf:RDF>
      <cc:Work
         rdf:about="">
        <dc:format>image/svg+xml</dc:format>
        <dc:type
           rdf:resource="http://purl.org/dc/dcmitype/StillImage" />
        <dc:title />
      </cc:Work>
    </rdf:RDF>
  </metadata>
  <g
     inkscape:label="Layer 1"
     inkscape:groupmode="layer"
     id="layer1">
    <path
       transform="scale(0.26458333)"
       id="path821"
       d="M 133.49414 408.8457 C 123.89857 408.8457 115.61141 411.4633 108.63281 416.69727 C 101.21805 422.51275 97.073497 430.2903 96.201172 440.03125 L 87.697266 538.60547 C 86.970329 546.74718 89.514582 553.65217 95.330078 559.32227 C 100.56403 564.41082 107.32425 567.60947 115.61133 568.91797 C 118.2283 569.35413 122.88054 569.57227 129.56836 569.57227 C 138.14622 569.57227 145.70561 566.51839 152.24805 560.41211 C 158.93587 554.30585 162.64416 547.03795 163.37109 538.60547 L 148.75977 538.60547 C 148.3236 543.25787 146.36039 547.10898 142.87109 550.16211 C 139.52718 553.21526 135.67412 554.88892 131.3125 555.17969 C 126.80549 555.47046 123.24393 554.37979 120.62695 551.9082 C 117.42843 548.85508 116.11962 544.42098 116.70117 538.60547 L 125.64258 436.32422 C 125.93335 432.54416 127.09739 429.49221 129.13281 427.16602 C 131.16824 424.69443 133.49436 423.45703 136.11133 423.45703 L 169.91406 423.45703 L 171.22266 408.8457 L 133.49414 408.8457 z M 205.17773 408.8457 L 203.86914 423.45703 L 212.15625 423.45703 L 199.28906 569.57227 L 228.51172 569.57227 L 234.83594 496.51562 L 262.5332 496.51562 L 258.17188 546.89258 C 257.59032 554.30736 259.40681 559.9769 263.62305 563.90234 C 267.83928 567.68243 273.50883 569.57227 280.63281 569.57227 L 293.06445 569.57227 L 294.37305 554.96094 C 289.1391 554.96094 286.73962 552.27193 287.17578 546.89258 L 299.16992 408.8457 L 269.94727 408.8457 L 263.62305 481.9043 L 236.14453 481.9043 L 242.46875 408.8457 L 205.17773 408.8457 z M 511.84375 408.8457 C 500.06737 408.8457 490.25325 412.11772 482.40234 418.66016 C 474.69679 425.05721 470.40942 433.05287 469.53711 442.64844 L 461.4668 535.76953 C 460.59448 545.3651 463.43022 553.28935 469.97266 559.54102 C 476.66048 566.22884 485.89159 569.57227 497.66797 569.57227 L 507.26367 569.57227 C 519.18544 569.57227 529.07292 566.22884 536.92383 559.54102 C 544.33861 553.28935 548.4812 545.3651 549.35352 535.76953 L 557.64062 442.64844 C 558.51297 433.05287 555.60579 425.05721 548.91797 418.66016 C 542.23015 412.11772 532.99708 408.8457 521.2207 408.8457 L 511.84375 408.8457 z M 593.62695 408.8457 L 592.31836 423.45703 L 600.82422 423.45703 L 587.95703 569.57227 L 617.17969 569.57227 L 629.83008 424.54883 L 642.47852 424.54883 C 651.20174 424.54883 655.05481 430.21837 654.03711 441.55859 L 642.69531 569.57227 L 671.91797 569.57227 L 684.78516 424.54883 L 697.43359 424.54883 C 705.86605 424.54883 709.57434 430.21837 708.55664 441.55859 L 699.61523 546.89258 C 699.03369 554.45274 700.85017 560.12229 705.06641 563.90234 C 709.28265 567.68243 714.95414 569.57227 722.07812 569.57227 L 734.07227 569.57227 L 735.38086 554.96094 C 730.58308 554.81555 728.40173 552.12654 728.83789 546.89258 L 737.56055 443.30273 C 738.43289 432.25329 734.87132 423.6032 726.875 417.35156 C 719.60563 411.68144 710.22779 408.8457 698.74219 408.8457 L 593.62695 408.8457 z M 814.125 408.8457 C 804.82021 408.8457 796.53304 412.19108 789.26367 418.87891 C 782.13967 425.42134 778.14185 433.34364 777.26953 442.64844 L 769.19922 535.76953 C 768.32688 545.07432 770.87309 553.06999 776.83398 559.75781 C 782.94026 566.30025 790.64443 569.57227 799.94922 569.57227 L 839.64062 569.57227 L 840.94922 555.17969 L 811.50781 555.17969 C 807.29157 555.17969 803.80142 553.72415 801.03906 550.81641 C 798.42209 547.76325 797.33337 544.20171 797.76953 540.13086 L 801.69336 496.51562 L 838.33203 496.51562 L 839.42188 481.9043 L 803.00195 481.9043 L 806.71094 438.50586 C 807.00171 434.43501 808.74485 430.94485 811.94336 428.03711 C 815.1419 424.98398 818.85019 423.45703 823.06641 423.45703 L 852.50781 423.45703 L 853.81641 408.8457 L 814.125 408.8457 z M 338.43164 409.06445 L 337.12305 423.45703 L 345.62891 423.45703 L 332.98047 569.57227 L 361.98438 569.57227 L 368.74609 491.93555 L 384.44727 491.93555 C 389.24505 491.93555 391.64453 494.55119 391.64453 499.78516 L 391.64453 501.74805 L 387.93555 546.89258 C 387.79016 547.76492 387.71875 548.6355 387.71875 549.50781 C 387.71875 562.88346 395.27814 569.57227 410.39844 569.57227 L 422.83008 569.57227 L 424.13867 554.96094 C 419.34089 554.96094 416.94141 552.85296 416.94141 548.63672 L 416.94141 546.89258 L 420.86719 501.3125 L 421.08398 497.60547 C 421.08398 490.62687 418.75787 485.39361 414.10547 481.9043 C 422.53795 474.34416 426.75391 459.36818 426.75391 436.97852 C 426.75391 427.52834 423.04757 420.33184 415.63281 415.38867 C 409.23576 411.17243 401.02198 409.06445 390.99023 409.06445 L 338.43164 409.06445 z M 374.85156 423.45703 L 387.71875 423.45703 C 390.7719 423.45703 393.24277 424.47632 395.13281 426.51172 C 397.02283 428.40176 397.89539 430.79929 397.75 433.70703 L 395.13281 466.41992 C 394.55124 473.68929 391.13445 477.32422 384.88281 477.32422 L 370.05469 477.32422 L 374.85156 423.45703 z M 515.33398 423.45703 C 519.40484 423.45703 522.74826 424.98398 525.36523 428.03711 C 527.9822 430.94485 529.14429 434.43501 528.85352 438.50586 L 520.13086 540.13086 C 519.84009 544.3471 518.095 547.90864 514.89648 550.81641 C 511.69797 553.72415 507.99163 555.17969 503.77539 555.17969 C 499.55915 555.17969 496.069 553.72415 493.30664 550.81641 C 490.68967 547.76325 489.599 544.20171 490.03516 540.13086 L 498.97656 438.50586 C 499.41275 434.43501 501.23117 430.94485 504.42969 428.03711 C 507.6282 424.98398 511.26313 423.45703 515.33398 423.45703 z "
       style="font-style:normal;font-variant:normal;font-weight:normal;font-stretch:normal;font-size:medium;line-height:1.25;font-family:HamburgerHeaven;-inkscape-font-specification:HamburgerHeaven;letter-spacing:6.90965033px;word-spacing:0px;fill:#000000;fill-opacity:1;stroke:#ababab;stroke-width:8.0000001;stroke-opacity:1;stroke-miterlimit:4;stroke-dasharray:none" />
    <path
       style="font-style:normal;font-variant:normal;font-weight:normal;font-stretch:normal;font-size:medium;line-height:1.25;font-family:HamburgerHeaven;-inkscape-font-specification:HamburgerHeaven;letter-spacing:6.90965033px;word-spacing:0px;fill:url(#linearGradient4871);fill-opacity:1;stroke:none;stroke-width:5.45202732"
       d="M 133.49414 408.8457 C 123.89857 408.8457 115.61141 411.4633 108.63281 416.69727 C 101.21805 422.51275 97.073497 430.2903 96.201172 440.03125 L 87.697266 538.60547 C 86.970329 546.74718 89.514582 553.65217 95.330078 559.32227 C 100.56403 564.41082 107.32425 567.60947 115.61133 568.91797 C 118.2283 569.35413 122.88054 569.57227 129.56836 569.57227 C 138.14622 569.57227 145.70561 566.51839 152.24805 560.41211 C 158.93587 554.30585 162.64416 547.03795 163.37109 538.60547 L 148.75977 538.60547 C 148.3236 543.25787 146.36039 547.10898 142.87109 550.16211 C 139.52718 553.21526 135.67412 554.88892 131.3125 555.17969 C 126.80549 555.47046 123.24393 554.37979 120.62695 551.9082 C 117.42843 548.85508 116.11962 544.42098 116.70117 538.60547 L 125.64258 436.32422 C 125.93335 432.54416 127.09739 429.49221 129.13281 427.16602 C 131.16824 424.69443 133.49436 423.45703 136.11133 423.45703 L 169.91406 423.45703 L 171.22266 408.8457 L 133.49414 408.8457 z M 205.17773 408.8457 L 203.86914 423.45703 L 212.15625 423.45703 L 199.28906 569.57227 L 228.51172 569.57227 L 234.83594 496.51562 L 262.5332 496.51562 L 258.17188 546.89258 C 257.59032 554.30736 259.40681 559.9769 263.62305 563.90234 C 267.83928 567.68243 273.50883 569.57227 280.63281 569.57227 L 293.06445 569.57227 L 294.37305 554.96094 C 289.1391 554.96094 286.73962 552.27193 287.17578 546.89258 L 299.16992 408.8457 L 269.94727 408.8457 L 263.62305 481.9043 L 236.14453 481.9043 L 242.46875 408.8457 L 205.17773 408.8457 z M 511.84375 408.8457 C 500.06737 408.8457 490.25325 412.11772 482.40234 418.66016 C 474.69679 425.05721 470.40942 433.05287 469.53711 442.64844 L 461.4668 535.76953 C 460.59448 545.3651 463.43022 553.28935 469.97266 559.54102 C 476.66048 566.22884 485.89159 569.57227 497.66797 569.57227 L 507.26367 569.57227 C 519.18544 569.57227 529.07292 566.22884 536.92383 559.54102 C 544.33861 553.28935 548.4812 545.3651 549.35352 535.76953 L 557.64062 442.64844 C 558.51297 433.05287 555.60579 425.05721 548.91797 418.66016 C 542.23015 412.11772 532.99708 408.8457 521.2207 408.8457 L 511.84375 408.8457 z M 593.62695 408.8457 L 592.31836 423.45703 L 600.82422 423.45703 L 587.95703 569.57227 L 617.17969 569.57227 L 629.83008 424.54883 L 642.47852 424.54883 C 651.20174 424.54883 655.05481 430.21837 654.03711 441.55859 L 642.69531 569.57227 L 671.91797 569.57227 L 684.78516 424.54883 L 697.43359 424.54883 C 705.86605 424.54883 709.57434 430.21837 708.55664 441.55859 L 699.61523 546.89258 C 699.03369 554.45274 700.85017 560.12229 705.06641 563.90234 C 709.28265 567.68243 714.95414 569.57227 722.07812 569.57227 L 734.07227 569.57227 L 735.38086 554.96094 C 730.58308 554.81555 728.40173 552.12654 728.83789 546.89258 L 737.56055 443.30273 C 738.43289 432.25329 734.87132 423.6032 726.875 417.35156 C 719.60563 411.68144 710.22779 408.8457 698.74219 408.8457 L 593.62695 408.8457 z M 814.125 408.8457 C 804.82021 408.8457 796.53304 412.19108 789.26367 418.87891 C 782.13967 425.42134 778.14185 433.34364 777.26953 442.64844 L 769.19922 535.76953 C 768.32688 545.07432 770.87309 553.06999 776.83398 559.75781 C 782.94026 566.30025 790.64443 569.57227 799.94922 569.57227 L 839.64062 569.57227 L 840.94922 555.17969 L 811.50781 555.17969 C 807.29157 555.17969 803.80142 553.72415 801.03906 550.81641 C 798.42209 547.76325 797.33337 544.20171 797.76953 540.13086 L 801.69336 496.51562 L 838.33203 496.51562 L 839.42188 481.9043 L 803.00195 481.9043 L 806.71094 438.50586 C 807.00171 434.43501 808.74485 430.94485 811.94336 428.03711 C 815.1419 424.98398 818.85019 423.45703 823.06641 423.45703 L 852.50781 423.45703 L 853.81641 408.8457 L 814.125 408.8457 z M 338.43164 409.06445 L 337.12305 423.45703 L 345.62891 423.45703 L 332.98047 569.57227 L 361.98438 569.57227 L 368.74609 491.93555 L 384.44727 491.93555 C 389.24505 491.93555 391.64453 494.55119 391.64453 499.78516 L 391.64453 501.74805 L 387.93555 546.89258 C 387.79016 547.76492 387.71875 548.6355 387.71875 549.50781 C 387.71875 562.88346 395.27814 569.57227 410.39844 569.57227 L 422.83008 569.57227 L 424.13867 554.96094 C 419.34089 554.96094 416.94141 552.85296 416.94141 548.63672 L 416.94141 546.89258 L 420.86719 501.3125 L 421.08398 497.60547 C 421.08398 490.62687 418.75787 485.39361 414.10547 481.9043 C 422.53795 474.34416 426.75391 459.36818 426.75391 436.97852 C 426.75391 427.52834 423.04757 420.33184 415.63281 415.38867 C 409.23576 411.17243 401.02198 409.06445 390.99023 409.06445 L 338.43164 409.06445 z M 374.85156 423.45703 L 387.71875 423.45703 C 390.7719 423.45703 393.24277 424.47632 395.13281 426.51172 C 397.02283 428.40176 397.89539 430.79929 397.75 433.70703 L 395.13281 466.41992 C 394.55124 473.68929 391.13445 477.32422 384.88281 477.32422 L 370.05469 477.32422 L 374.85156 423.45703 z M 515.33398 423.45703 C 519.40484 423.45703 522.74826 424.98398 525.36523 428.03711 C 527.9822 430.94485 529.14429 434.43501 528.85352 438.50586 L 520.13086 540.13086 C 519.84009 544.3471 518.095 547.90864 514.89648 550.81641 C 511.69797 553.72415 507.99163 555.17969 503.77539 555.17969 C 499.55915 555.17969 496.069 553.72415 493.30664 550.81641 C 490.68967 547.76325 489.599 544.20171 490.03516 540.13086 L 498.97656 438.50586 C 499.41275 434.43501 501.23117 430.94485 504.42969 428.03711 C 507.6282 424.98398 511.26313 423.45703 515.33398 423.45703 z "
       id="path4508"
       transform="scale(0.26458333)" />
  </g>
</svg>
